<svg width="32" height="32" viewBox="0 0 128 128" fill="none" xmlns="http://www.w3.org/2000/svg">
  <defs>
    <linearGradient id="bg" x1="18" y1="16" x2="110" y2="112" gradientUnits="userSpaceOnUse">
      <stop stop-color="#ECFDF5"/>
      <stop offset="1" stop-color="#D1FAE5"/>
    </linearGradient>
    <linearGradient id="green" x1="38" y1="28" x2="92" y2="96" gradientUnits="userSpaceOnUse">
      <stop stop-color="#25D366"/>
      <stop offset="1" stop-color="#128C7E"/>
    </linearGradient>
    <filter id="shadow" x="-20%" y="-20%" width="140%" height="140%">
      <feDropShadow dx="0" dy="8" stdDeviation="8" flood-color="#064E3B" flood-opacity="0.16"/>
    </filter>
  </defs>
  <rect x="14" y="14" width="100" height="100" rx="28" fill="url(#bg)"/>
  <g filter="url(#shadow)">
    <rect x="30" y="30" width="68" height="68" rx="22" fill="white"/>
    <rect x="30" y="30" width="68" height="68" rx="22" stroke="#D1FAE5" stroke-width="2"/>
  </g>
  <path d="M47 51C47 44.4 52.4 39 59 39H70C76.6 39 82 44.4 82 51V59C82 65.6 76.6 71 70 71H61L50 79V70.2C45.5 68.6 42 64.3 42 59V56C42 54.2 43.8 51 47 51Z" fill="url(#green)"/>
  <path d="M55 53H72" stroke="white" stroke-width="4" stroke-linecap="round"/>
  <path d="M55 62H67" stroke="white" stroke-width="4" stroke-linecap="round"/>
  <path d="M43 91L55 82L65 87L82 73L91 77" stroke="#10B981" stroke-width="5" stroke-linecap="round" stroke-linejoin="round"/>
  <circle cx="55" cy="82" r="3.5" fill="#10B981"/>
  <circle cx="65" cy="87" r="3.5" fill="#10B981"/>
  <circle cx="82" cy="73" r="3.5" fill="#10B981"/>
  <path d="M84 36L75 53H84L78 66L93 47H84L84 36Z" fill="#FACC15" stroke="white" stroke-width="2" stroke-linejoin="round"/>
</svg>
