<svg width="32" height="32" viewBox="0 0 128 128" fill="none" xmlns="http://www.w3.org/2000/svg">
  <defs>
    <radialGradient id="orb" cx="0" cy="0" r="1" gradientUnits="userSpaceOnUse" gradientTransform="translate(58 42) rotate(55) scale(62)">
      <stop stop-color="#5CFF92"/>
      <stop offset="0.55" stop-color="#25D366"/>
      <stop offset="1" stop-color="#128C7E"/>
    </radialGradient>
    <filter id="shadow" x="-25%" y="-25%" width="150%" height="150%">
      <feDropShadow dx="0" dy="12" stdDeviation="10" flood-color="#064E3B" flood-opacity="0.22"/>
    </filter>
  </defs>
  <path d="M65 13C86 13 105 27 111 47C118 69 108 93 88 106C67 119 39 113 24 93C10 74 12 46 29 28C39 18 51 13 65 13Z" fill="url(#orb)" filter="url(#shadow)"/>
  <path d="M38 61C38 46.6 49.8 35 64.4 35H70.6C85.2 35 97 46.6 97 61C97 75.4 85.2 87 70.6 87H62L43 99L48.5 82.5C42.1 77.7 38 70 38 61Z" fill="white"/>
  <circle cx="59" cy="62" r="4" fill="#16A34A"/>
  <circle cx="75" cy="62" r="4" fill="#16A34A"/>
  <path d="M55 73C61 79 73 79 80 72" stroke="#16A34A" stroke-width="5" stroke-linecap="round"/>
  <path d="M74 43L86 31L98 43" stroke="white" stroke-width="6" stroke-linecap="round" stroke-linejoin="round"/>
  <path d="M86 32V51" stroke="white" stroke-width="6" stroke-linecap="round"/>
  <circle cx="24" cy="41" r="5" fill="#BBF7D0"/>
  <circle cx="104" cy="84" r="6" fill="#DCFCE7"/>
  <circle cx="38" cy="107" r="4" fill="#86EFAC"/>
</svg>
