<svg width="32" height="32" viewBox="0 0 128 128" fill="none" xmlns="http://www.w3.org/2000/svg">
  <defs>
    <linearGradient id="mainGreen" x1="34" y1="20" x2="96" y2="106" gradientUnits="userSpaceOnUse">
      <stop stop-color="#2AF06D"/>
      <stop offset="1" stop-color="#128C4A"/>
    </linearGradient>
    <linearGradient id="softGreen" x1="18" y1="25" x2="112" y2="105" gradientUnits="userSpaceOnUse">
      <stop stop-color="#DCFCE7"/>
      <stop offset="1" stop-color="#BBF7D0"/>
    </linearGradient>
    <filter id="shadow" x="-25%" y="-25%" width="150%" height="150%">
      <feDropShadow dx="0" dy="8" stdDeviation="7" flood-color="#0F172A" flood-opacity="0.16"/>
    </filter>
  </defs>
  <rect x="14" y="18" width="100" height="92" rx="24" fill="#F8FAFC"/>
  <rect x="14" y="18" width="100" height="92" rx="24" stroke="#E2E8F0" stroke-width="2"/>
  <path d="M64 44V30" stroke="#86EFAC" stroke-width="4" stroke-linecap="round"/>
  <path d="M64 84V99" stroke="#86EFAC" stroke-width="4" stroke-linecap="round"/>
  <path d="M44 64H28" stroke="#86EFAC" stroke-width="4" stroke-linecap="round"/>
  <path d="M84 64H100" stroke="#86EFAC" stroke-width="4" stroke-linecap="round"/>
  <circle cx="64" cy="28" r="9" fill="url(#softGreen)" stroke="#22C55E" stroke-width="3"/>
  <circle cx="64" cy="100" r="9" fill="url(#softGreen)" stroke="#22C55E" stroke-width="3"/>
  <circle cx="28" cy="64" r="9" fill="url(#softGreen)" stroke="#22C55E" stroke-width="3"/>
  <circle cx="100" cy="64" r="9" fill="url(#softGreen)" stroke="#22C55E" stroke-width="3"/>
  <g filter="url(#shadow)">
    <rect x="39" y="39" width="50" height="50" rx="18" fill="url(#mainGreen)"/>
    <rect x="39" y="39" width="50" height="50" rx="18" stroke="white" stroke-width="4"/>
  </g>
  <rect x="52" y="57" width="24" height="16" rx="8" fill="white"/>
  <circle cx="59" cy="65" r="2.2" fill="#16A34A"/>
  <circle cx="69" cy="65" r="2.2" fill="#16A34A"/>
  <path d="M64 53V49" stroke="white" stroke-width="3" stroke-linecap="round"/>
  <circle cx="64" cy="47" r="3" fill="white"/>
  <path d="M51 75L46 83L57 78" fill="white"/>
  <path d="M23 33H42" stroke="#CBD5E1" stroke-width="4" stroke-linecap="round"/>
  <path d="M23 43H35" stroke="#E2E8F0" stroke-width="4" stroke-linecap="round"/>
  <path d="M86 91H105" stroke="#CBD5E1" stroke-width="4" stroke-linecap="round"/>
  <path d="M93 81H105" stroke="#E2E8F0" stroke-width="4" stroke-linecap="round"/>
</svg>
